<?xml version="1.0" encoding="iso-8859-1"?>
<!-- Uploaded to: SVG Repo, www.svgrepo.com, Generator: SVG Repo Mixer Tools -->
<svg fill="#000000" height="800px" width="800px" version="1.1" id="Layer_1" xmlns="http://www.w3.org/2000/svg" xmlns:xlink="http://www.w3.org/1999/xlink" 
	 viewBox="0 0 512 512" xml:space="preserve">
<g>
	<g>
		<path d="M433.78,491.595c-14.767-164.707-1.572-108.891-58.429-252.545v-53.747l23.347-74.059
			c1.72-5.457,0.852-11.401-2.358-16.139c-15.205-22.442-23.071-51.435-20.037-73.862C377.824,10.003,369.071,0,357.741,0h-52.431
			c-7.785,0-14.758,4.814-17.517,12.096c-7.523,19.854-10.712,37.552-31.791,37.552c-21.078,0-24.259-17.672-31.791-37.552
			C221.45,4.814,214.477,0,206.692,0h-52.433c-11.343,0-20.082,10.014-18.563,21.243c3.033,22.428-4.832,51.421-20.037,73.862
			c-3.209,4.738-4.078,10.682-2.358,16.139l23.347,74.059v53.747C79.777,382.745,92.962,327.166,78.22,491.595
			C77.237,502.553,85.877,512,96.877,512h318.247C426.124,512,434.762,502.55,433.78,491.595z M173.624,37.463h20.134l3.423,9.034
			C206.53,71.169,229.617,87.11,256,87.11s49.47-15.942,58.819-40.613l3.423-9.034h20.134c1.209,23.582,8.979,48.885,21.977,70.812
			l-17.469,55.412H169.116l-17.469-55.412C164.646,86.348,172.417,61.045,173.624,37.463z M337.886,201.151v22.74H174.113v-22.74
			H337.886z M117.353,474.537c11.93-134.582,0.694-86.685,50.76-213.182h175.775c50.037,126.424,38.832,78.582,50.76,213.182
			H117.353z"/>
	</g>
</g>
</svg>